<svg viewBox="0 0 600 400" xmlns="http://www.w3.org/2000/svg">
<g transform="translate(72, 364)">
<g>
<g>
<circle cx="0" cy="-294.39460616237125" fill="" r="0.800000011920929"/>
<circle cx="14.545454545454545" cy="-301.2849668743753" fill="" r="0.800000011920929"/>
<circle cx="29.09090909090909" cy="-299.2512042449112" fill="" r="0.800000011920929"/>
<circle cx="43.63636363636363" cy="-304.7472898546506" fill="" r="0.800000011920929"/>
<circle cx="58.18181818181818" cy="-306.8089765307203" fill="" r="0.800000011920929"/>
<circle cx="72.72727272727273" cy="-301.03344807827045" fill="" r="0.800000011920929"/>
<circle cx="87.27272727272727" cy="-295.8555818121561" fill="" r="0.800000011920929"/>
<circle cx="101.81818181818181" cy="-297.980395645143" fill="" r="0.800000011920929"/>
<circle cx="116.36363636363636" cy="-306.88605022707577" fill="" r="0.800000011920929"/>
<circle cx="130.9090909090909" cy="-305.4523645364113" fill="" r="0.800000011920929"/>
<circle cx="145.45454545454547" cy="-299.6788182771125" fill="" r="0.800000011920929"/>
<circle cx="160" cy="-301.5443629729323" fill="" r="0.800000011920929"/>
<circle cx="174.54545454545453" cy="-307.9152450824761" fill="" r="0.800000011920929"/>
<circle cx="189.0909090909091" cy="-307.01746646598855" fill="" r="0.800000011920929"/>
<circle cx="203.63636363636363" cy="-304.86200140543417" fill="" r="0.800000011920929"/>
<circle cx="218.1818181818182" cy="-302.59891485438936" fill="" r="0.800000011920929"/>
<circle cx="232.72727272727272" cy="-300.92162479405044" fill="" r="0.800000011920929"/>
<circle cx="247.27272727272728" cy="-299.4963073667696" fill="" r="0.800000011920929"/>
<circle cx="261.8181818181818" cy="-304.0027918824492" fill="" r="0.800000011920929"/>
<circle cx="276.3636363636364" cy="-302.6215698930479" fill="" r="0.800000011920929"/>
<circle cx="290.90909090909093" cy="-299.67592815084913" fill="" r="0.800000011920929"/>
<circle cx="305.45454545454544" cy="-303.89729846772116" fill="" r="0.800000011920929"/>
<circle cx="320" cy="-303.5782684263297" fill="" r="0.800000011920929"/>
<circle cx="334.54545454545456" cy="-309.09090909090907" fill="" r="0.800000011920929"/>
<circle cx="349.09090909090907" cy="-301.2019333268092" fill="" r="0.800000011920929"/>
<circle cx="363.6363636363636" cy="-300.74796243333543" fill="" r="0.800000011920929"/>
<circle cx="378.1818181818182" cy="-303.65349335356086" fill="" r="0.800000011920929"/>
<circle cx="392.72727272727275" cy="-299.59794059451946" fill="" r="0.800000011920929"/>
<circle cx="407.27272727272725" cy="-304.0583469123769" fill="" r="0.800000011920929"/>
<circle cx="421.8181818181818" cy="-302.3964984617104" fill="" r="0.800000011920929"/>
<circle cx="436.3636363636364" cy="-304.32437307602675" fill="" r="0.800000011920929"/>
</g>
</g>
<g>
<g>
<line stroke="black" stroke-width="1" x1="0" x2="0" y1="0" y2="10"/>
<line stroke="black" stroke-width="1" x1="145.45454545454547" x2="145.45454545454547" y1="0" y2="10"/>
<line stroke="black" stroke-width="1" x1="290.90909090909093" x2="290.90909090909093" y1="0" y2="10"/>
<line stroke="black" stroke-width="1" x1="436.3636363636364" x2="436.3636363636364" y1="0" y2="10"/>
</g>
<line stroke="black" stroke-width="1" x1="0" x2="480" y1="0" y2="0"/>
<g>
<text font-size="12" text-anchor="middle" x="0" y="20">
0
</text>
<text font-size="12" text-anchor="middle" x="145.45454545454547" y="20">
10
</text>
<text font-size="12" text-anchor="middle" x="290.90909090909093" y="20">
20
</text>
<text font-size="12" text-anchor="middle" x="436.3636363636364" y="20">
30
</text>
</g>
<text font-size="12" text-anchor="middle" x="240" y="30">

</text>
</g>
<g>
<g>
<line stroke="black" stroke-width="1" x1="0" x2="-10" y1="-0" y2="-0"/>
<line stroke="black" stroke-width="1" x1="0" x2="-10" y1="-59.7311640573073" y2="-59.7311640573073"/>
<line stroke="black" stroke-width="1" x1="0" x2="-10" y1="-119.4623281146146" y2="-119.4623281146146"/>
<line stroke="black" stroke-width="1" x1="0" x2="-10" y1="-179.1934921719219" y2="-179.1934921719219"/>
<line stroke="black" stroke-width="1" x1="0" x2="-10" y1="-238.9246562292292" y2="-238.9246562292292"/>
<line stroke="black" stroke-width="1" x1="0" x2="-10" y1="-298.6558202865365" y2="-298.6558202865365"/>
</g>
<line stroke="black" stroke-width="1" x1="0" x2="0" y1="0" y2="-340"/>
<g>
<text dominant-baseline="middle" font-size="12" text-anchor="end" x="-15" y="-0">
0
</text>
<text dominant-baseline="middle" font-size="12" text-anchor="end" x="-15" y="-59.7311640573073">
0.005
</text>
<text dominant-baseline="middle" font-size="12" text-anchor="end" x="-15" y="-119.4623281146146">
0.01
</text>
<text dominant-baseline="middle" font-size="12" text-anchor="end" x="-15" y="-179.1934921719219">
0.015
</text>
<text dominant-baseline="middle" font-size="12" text-anchor="end" x="-15" y="-238.9246562292292">
0.02
</text>
<text dominant-baseline="middle" font-size="12" text-anchor="end" x="-15" y="-298.6558202865365">
0.025
</text>
</g>
<text font-size="12" text-anchor="middle" transform="rotate(-90 -60 -170)" x="-60" y="-182">

</text>
</g>
</g>
</svg>